<svg width="201" height="196" viewBox="0 0 201 196" fill="none" xmlns="http://www.w3.org/2000/svg">
<g clip-path="url(#clip0_482_8099)">
<path d="M165.305 39.2696C175.745 39.2696 184.209 30.7643 184.209 20.2725C184.209 9.78068 175.745 1.27539 165.305 1.27539C154.864 1.27539 146.4 9.78068 146.4 20.2725C146.4 30.7643 154.864 39.2696 165.305 39.2696Z" stroke="#F4F4F4" stroke-miterlimit="10" stroke-dasharray="12.25 12.25"/>
<path d="M47.0346 19.4662C41.36 21.9607 35.7184 25.0003 31.748 29.7789C27.7775 34.5575 25.789 41.4231 28.1699 47.1698C31.3511 54.8462 41.4305 59.3103 41.4768 67.6247C41.5099 73.5797 36.0403 78.1279 30.52 80.2924C24.9997 82.4568 18.8886 83.2366 13.8666 86.4025C6.28941 91.1767 2.73782 100.419 1.28279 109.288C-0.227347 118.495 0.385527 128.978 6.86921 135.658C14.927 143.961 28.2537 143.024 39.6602 141.254C54.8829 138.892 70.0372 136.116 85.1893 133.34C118.406 127.257 151.622 121.171 184.839 115.088C188.401 114.434 192.105 113.721 195 111.536C200.747 107.194 201.232 98.2327 197.892 91.8346C194.552 85.4365 188.373 81.0899 182.235 77.3282C176.098 73.5664 169.616 70.0085 165.02 64.4544C160.423 58.9004 158.137 50.6768 161.616 44.3541C164.563 38.9972 170.895 36.1349 173.655 30.6784C177.292 23.4894 173.106 14.3087 166.508 9.7184C159.907 5.12808 77.0191 6.29117 47.0346 19.4662Z" fill="#F4F4F4"/>
<path d="M122.369 149.818H78.2773V179.726H122.369V149.818Z" fill="#3480FF"/>
<path d="M27.0534 62.7529H173.594C176.595 62.7529 179.029 65.1965 179.029 68.2139V156.544C179.029 159.559 176.597 162.005 173.594 162.005H27.0534C24.053 162.005 21.6191 159.562 21.6191 156.544V68.2139C21.6191 65.1965 24.0508 62.7529 27.0534 62.7529Z" fill="#A5C7FF"/>
<path d="M174.761 66.9619H25.8828V157.794H174.761V66.9619Z" fill="white"/>
<path d="M66.3718 178.397H129.864C134.368 178.397 138.021 182.068 138.021 186.594H58.2148C58.2148 182.068 61.8678 178.397 66.3718 178.397Z" fill="#A5C7FF"/>
<path d="M56.2321 74.4941H31.3203V99.5282H56.2321V74.4941Z" fill="#A5C7FF"/>
<path d="M169.767 105.51H74.529C73.4334 105.51 72.5449 104.617 72.5449 103.516C72.5449 102.415 73.4334 101.522 74.529 101.522H169.767C170.863 101.522 171.751 102.415 171.751 103.516C171.751 104.617 170.863 105.51 169.767 105.51Z" fill="#F4F4F4"/>
<path d="M103.189 111.713H74.529C73.4334 111.713 72.5449 110.821 72.5449 109.719C72.5449 108.618 73.4334 107.726 74.529 107.726H103.189C104.284 107.726 105.173 108.618 105.173 109.719C105.173 110.821 104.284 111.713 103.189 111.713Z" fill="#F4F4F4"/>
<path d="M70.5625 101.522H58.2168V113.929H70.5625V101.522Z" fill="#A5C7FF"/>
<path d="M171.753 74.4941H58.2168V99.5282H171.753V74.4941Z" fill="#F4F4F4"/>
<path d="M56.2321 101.522H31.3203V154.028H56.2321V101.522Z" fill="#F4F4F4"/>
<path d="M167.611 131.874H62.3592C60.0709 131.874 58.2168 130.011 58.2168 127.711V122.964C58.2168 120.664 60.0709 118.801 62.3592 118.801H167.613C169.901 118.801 171.755 120.664 171.755 122.964V127.711C171.753 130.011 169.899 131.874 167.611 131.874Z" stroke="#A5C7FF" stroke-miterlimit="10"/>
<path d="M133.785 153.917H62.5634C60.2221 153.917 58.3262 152.01 58.3262 149.659V138.682C58.3262 136.329 60.2243 134.424 62.5634 134.424H133.783C136.124 134.424 138.02 136.331 138.02 138.682V149.659C138.022 152.01 136.124 153.917 133.785 153.917Z" fill="#A5C7FF"/>
<path d="M169.317 154.028H143.324C141.858 154.028 140.668 152.834 140.668 151.358V137.202C140.668 135.729 141.856 134.532 143.324 134.532H169.317C170.783 134.532 171.973 135.726 171.973 137.202V151.358C171.973 152.834 170.785 154.028 169.317 154.028Z" fill="#A5C7FF"/>
<path d="M43.8869 63.8607C57.4018 63.8607 68.3578 52.8509 68.3578 39.2697C68.3578 25.6885 57.4018 14.6787 43.8869 14.6787C30.372 14.6787 19.416 25.6885 19.416 39.2697C19.416 52.8509 30.372 63.8607 43.8869 63.8607Z" fill="#A5C7FF"/>
<path d="M42.1369 19.3153C45.8384 17.0866 52.0553 19.796 55.0756 26.0966C58.054 32.3108 57.0796 40.5831 60.8825 46.1571C62.5249 48.563 65.0822 50.6101 65.1373 53.6806C65.1792 56.0068 63.6117 58.0583 61.7643 58.9555C59.9169 59.855 57.8401 59.8239 55.8428 59.6534C48.2039 59.0065 40.3931 56.3391 34.8243 50.2312C29.2533 44.1234 26.4953 34.0632 29.6303 25.946C30.6885 23.2077 32.4102 20.7442 34.703 19.3662C36.998 17.986 39.8904 17.8176 42.1369 19.2997" fill="#1A1658"/>
<path d="M41.1298 48.8378C38.2814 48.8378 25.8233 51.3412 26.0019 60.8209C30.4508 63.3243 40.4309 65.9451 46.6456 65.1121C51.9851 64.3966 61.5949 59.2103 61.5949 59.2103C61.5949 59.2103 56.6126 47.7633 45.5786 48.8378C43.621 53.3085 41.1298 48.8378 41.1298 48.8378Z" fill="#3480FF"/>
<path d="M40.6096 43.8487C40.6096 43.8487 40.6096 50.2246 39.375 51.0554C42.9398 53.4126 44.3111 54.3807 44.3111 54.3807L48.4248 51.3323C47.4658 49.8081 46.3679 46.2037 46.6413 43.1553C43.4888 43.5718 40.6096 43.8487 40.6096 43.8487Z" fill="#FFE3CA"/>
<path d="M53.8305 31.8635C53.8305 37.8739 49.2604 45.9291 43.6232 45.9291C37.9861 45.9291 33.416 37.8739 33.416 31.8635C33.416 25.8531 37.9861 20.9814 43.6232 20.9814C49.2604 20.9792 53.8305 25.8531 53.8305 31.8635Z" fill="#FFE3CA"/>
<path d="M38.4405 22.5922C38.597 26.4404 41.2866 29.8211 44.5582 31.8261C47.8298 33.831 51.6481 34.7039 55.3893 35.5435C54.6949 32.2691 53.9541 28.9438 52.3007 26.0372C50.6473 23.1328 47.9158 20.6604 44.6243 20.1464C42.6711 19.8429 40.6693 20.2417 38.8042 20.893C37.0075 21.5222 35.2262 22.4394 34.0886 23.9724C32.1331 26.6088 32.563 30.2598 33.0833 33.5053C35.2262 30.9177 37.8981 28.7732 40.8831 27.2446" fill="#1A1658"/>
<path d="M39.9189 70.5069L40.6619 59.9727L31.9824 60.0945L39.9189 70.5069Z" fill="#3480FF"/>
<path d="M64.2792 61.8668C68.7232 61.8668 72.3259 58.2465 72.3259 53.7806C72.3259 49.3147 68.7232 45.6943 64.2792 45.6943C59.8351 45.6943 56.2324 49.3147 56.2324 53.7806C56.2324 58.2465 59.8351 61.8668 64.2792 61.8668Z" fill="#FFBE55"/>
<path d="M60.9149 52.7328H63.179V50.1651C63.179 49.5825 63.6508 49.1084 64.2306 49.1084H64.3276C64.9074 49.1084 65.3792 49.5825 65.3792 50.1651V52.7328H67.6433C68.2231 52.7328 68.6949 53.2069 68.6949 53.7896C68.6949 54.3722 68.2231 54.8463 67.6433 54.8463H65.3792V57.3984C65.3792 57.9811 64.9074 58.4552 64.3276 58.4552H64.2306C63.6508 58.4552 63.179 57.9811 63.179 57.3984V54.8463H60.9149C60.3351 54.8463 59.8633 54.3722 59.8633 53.7896C59.8633 53.2047 60.3329 52.7328 60.9149 52.7328Z" fill="white"/>
<path d="M66.594 70.0641L67.0349 66.9625C67.0349 66.9625 67.6963 65.1902 67.6963 64.5255C67.6963 63.8609 67.4758 62.9748 67.0349 62.9748C66.8144 60.3163 66.594 58.5439 66.594 58.5439C66.594 58.5439 66.1531 58.5439 65.9326 58.987C65.7122 59.4301 65.9326 60.9809 65.9326 60.9809C65.9326 60.9809 63.2871 62.7532 63.2871 63.4178C63.2871 64.0825 64.6099 67.8486 64.6099 67.8486L64.3894 70.9502L66.594 70.0641Z" fill="#FFE3CA"/>
<path d="M108.726 127.541L110.06 129.998C110.06 129.998 112.727 131.786 112.727 132.679C112.727 133.571 112.727 134.688 112.727 134.688L110.728 137.145C110.728 137.145 108.951 132.231 108.728 132.455C108.506 133.571 108.506 134.912 108.063 135.135C107.84 133.795 108.508 130.445 107.617 129.329C106.727 128.21 108.726 127.541 108.726 127.541Z" fill="#FFE3CA"/>
<path d="M105.523 189.597L109.512 189.282L108.833 180.598L104.844 180.913L105.523 189.597Z" fill="#FFE3CA"/>
<path d="M109.517 189.269C111.208 190.928 112.418 192.175 112.489 193.066C111.025 194.302 106.219 195.576 103.899 194.415C103.434 191.316 105.529 189.581 105.529 189.581L109.517 189.269Z" fill="#1A1658"/>
<path d="M81.3893 189.405L85.3906 189.405L85.3906 180.694L81.3893 180.694L81.3893 189.405Z" fill="#FFE3CA"/>
<path d="M83.9471 118.048C81.2795 126.311 71.0568 160.036 79.7253 184.379C83.3915 186.947 87.3928 184.49 87.3928 184.49C87.3928 184.49 96.3941 148.645 93.9493 134.127C91.5044 119.61 91.1715 118.048 91.1715 118.048H83.9471V118.048Z" fill="#1A1658"/>
<path d="M88.5015 91.917L91.7246 91.917L91.7246 84.9938L88.5015 84.9938L88.5015 91.917Z" fill="#FFE3CA"/>
<path d="M84.6406 83.2988C84.6406 86.5864 85.895 89.2538 88.5317 89.2538C91.1684 89.2538 94.1909 86.5886 94.1909 83.2988C94.1909 80.0111 92.0524 77.3438 89.4158 77.3438C86.7791 77.3438 84.6406 80.0111 84.6406 83.2988Z" fill="#FFE3CA"/>
<path d="M85.6133 77.4323C86.321 80.2768 86.8523 86.8522 90.7434 89.1628C93.2191 90.4079 100.472 83.8304 96.9338 77.964C93.3955 72.0976 85.966 75.8327 85.6133 77.4323Z" fill="#1A1658"/>
<path d="M91.724 91.917C95.7253 92.3645 101.504 95.2667 101.504 95.2667C101.504 95.2667 108.17 120.728 109.504 128.544C107.504 129.885 106.836 130.554 106.836 130.554L99.2791 105.54L96.3889 118.045H83.944L81.0538 101.966C81.0538 101.966 62.3854 92.8098 63.9396 70.2526C67.4956 68.6885 67.4956 68.6885 67.4956 68.6885C67.4956 68.6885 66.6071 92.5861 83.9418 92.1385C83.9462 92.1408 89.5018 91.0242 91.724 91.917Z" fill="#3480FF"/>
<path d="M96.3651 118.048C104.143 131.673 113.922 166.288 110.366 185.274C106.7 188.289 103.7 185.274 103.7 185.274C103.7 185.274 90.3642 156.018 90.5868 135.022C89.6984 122.516 90.5846 118.048 90.5846 118.048H96.3651V118.048Z" fill="#1A1658"/>
<path d="M85.3896 189.405C86.946 191.193 88.0572 192.531 88.0572 193.426C86.5007 194.543 81.611 195.436 79.3887 194.095C79.1661 190.969 81.3883 189.405 81.3883 189.405H85.3896Z" fill="#1A1658"/>
<path d="M97.0163 78.0391C98.3391 80.6975 101.205 88.673 105.173 87.5653C99.4414 92.8823 88.198 92.4392 85.332 91.3315C87.0957 86.0145 86.6768 81.1584 86.6768 81.1584L97.0163 78.0391Z" fill="#1A1658"/>
<path d="M86.4345 76.4883C85.7731 76.9314 84.0094 79.1468 84.2299 79.5898C84.4503 80.0329 88.4186 82.0268 88.4186 82.0268L86.4345 76.4883Z" fill="#1A1658"/>
<path d="M81.3055 51.7906L85.5736 50.3965L85.1886 49.2178L82.3273 50.1524L80.4147 44.2968L79.0079 44.7563L81.3055 51.7906ZM88.7598 49.5031C90.0906 49.0684 90.972 47.6443 90.3976 45.8858C89.8201 44.1177 88.268 43.4885 86.9372 43.9232C85.5969 44.361 84.7155 45.785 85.293 47.5531C85.8674 49.3117 87.4195 49.9409 88.7598 49.5031ZM88.3903 48.3719C87.6584 48.611 87.0449 48.0855 86.7189 47.0874C86.3898 46.0797 86.5779 45.3029 87.3098 45.0639C88.0323 44.8279 88.6426 45.3439 88.9717 46.3515C89.2978 47.3496 89.1128 48.1359 88.3903 48.3719ZM95.06 49.8543C96.8376 49.2737 97.7048 48.0962 97.354 47.022C97.0466 46.081 96.2159 45.921 94.9326 46.3402L94.02 46.6382C93.4022 46.84 93.1308 46.7499 93.0407 46.4742C92.9693 46.2556 93.0176 46.1135 93.1167 45.9339C93.3823 45.9418 93.6324 45.9022 93.8415 45.8339C94.9917 45.4582 95.7086 44.5613 95.3143 43.3541C95.2087 43.0309 95.0079 42.7703 94.8063 42.6363L95.7189 42.3382L95.3836 41.3116L93.4634 41.9388C93.2168 41.9247 92.9161 41.9703 92.6119 42.0696C91.4903 42.436 90.681 43.4367 91.0908 44.6915C91.2958 45.3189 91.812 45.7078 92.2697 45.8529L92.2821 45.8909C92.0239 46.2277 91.8758 46.6759 92.0062 47.0751C92.149 47.5124 92.4513 47.7292 92.7859 47.8198L92.8014 47.8673C92.3941 48.2949 92.2552 48.7716 92.4011 49.2184C92.7054 50.15 93.8147 50.261 95.06 49.8543ZM93.562 44.9784C93.0963 45.1305 92.6076 44.8904 92.4026 44.263C92.1977 43.6356 92.4567 43.1723 92.9224 43.0202C93.3977 42.865 93.8707 43.0892 94.0756 43.7166C94.2806 44.3439 94.0278 44.8263 93.562 44.9784ZM94.9899 48.8988C94.2104 49.1534 93.6354 49.0677 93.4894 48.621C93.418 48.4023 93.4543 48.159 93.6362 47.8787C93.845 47.8736 94.0698 47.8212 94.393 47.7157L95.0394 47.5045C95.6098 47.3182 95.9576 47.3203 96.0818 47.7006C96.2153 48.1093 95.7884 48.638 94.9899 48.8988ZM98.1143 46.3003L99.5116 45.8439L97.776 40.5302L96.3786 40.9866L98.1143 46.3003ZM96.79 39.8949C97.2748 39.7366 97.5081 39.3237 97.356 38.8579C97.207 38.4016 96.778 38.2156 96.2932 38.374C95.8084 38.5323 95.5815 38.9326 95.7305 39.3888C95.8827 39.8546 96.3052 40.0532 96.79 39.8949ZM101.001 45.3573L102.399 44.9009L101.203 41.2412C101.469 40.7336 101.676 40.4345 102.113 40.2916C102.627 40.124 102.954 40.322 103.228 41.1585L104.252 44.2954L105.65 43.839L104.566 40.5215C104.131 39.1907 103.367 38.5568 102.226 38.9294C101.504 39.1653 101.076 39.7256 100.769 40.331L100.741 40.3403L100.397 39.6741L99.2656 40.0436L101.001 45.3573ZM106.86 40.7927L107.772 40.4946L106.826 36.9218L106.433 35.5881L105.035 36.0445L105.505 37.3534L106.86 40.7927ZM108.132 43.1753C108.636 43.0107 108.88 42.4999 108.709 41.9771C108.538 41.4543 108.043 41.1951 107.539 41.3597C107.045 41.5212 106.799 42.0225 106.969 42.5453C107.14 43.0681 107.638 43.3368 108.132 43.1753Z" fill="#1A1658"/>
<path d="M81.5 55L112 53.5" stroke="#1A1658" stroke-width="1.5" stroke-linecap="round"/>
<path d="M77.0836 42.5081L95.9993 28.0004" stroke="#1A1658" stroke-width="1.5" stroke-linecap="round"/>
</g>
<defs>
<clipPath id="clip0_482_8099">
<rect width="200" height="195" fill="white" transform="translate(0.5 0.5)"/>
</clipPath>
</defs>
</svg>
