<svg width="191" height="188" viewBox="0 0 191 188" fill="none" xmlns="http://www.w3.org/2000/svg">
<path d="M128.215 19.6668C133.645 19.7293 139.075 20.8989 143.994 23.2191C147.486 24.8661 150.657 27.0238 153.195 29.7527C158.27 35.2125 160.275 43.2033 156.811 49.201C153.919 54.2064 147.557 57.7942 147.482 63.5564C147.392 70.2692 155.899 74.743 163.313 76.1314C170.727 77.5198 179.044 77.7846 184.611 82.569C189.402 86.6864 190.68 93.2824 189.088 98.8027C187.495 104.325 183.464 108.92 178.976 112.847C167.729 122.689 153.295 129.16 138.5 134.264C107.239 145.046 73.3326 150.302 39.1801 149.659C30.6523 149.499 21.1294 148.577 15.15 142.819C9.12068 137.016 8.92705 127.818 12.8724 121.17C16.8177 114.522 24.0796 110.054 31.6642 106.8C39.2488 103.545 47.3851 101.271 54.7677 97.6916C60.3411 94.9898 66.0603 89.8239 63.691 84.2848C62.0088 80.3509 57.0683 78.4517 52.7191 76.8527C46.5752 74.5908 40.4563 71.962 35.4346 67.9864C30.4108 64.0109 26.5571 58.4968 26.174 52.6491C25.8159 47.1893 28.5204 41.9816 32.5136 38.0728C36.5089 34.1639 41.7117 31.4079 47.0436 29.0543C68.1027 19.7627 113.556 19.4938 128.215 19.6668Z" fill="#F4F4F4"/>
<path d="M136.963 187.881H57.786C51.1383 187.881 45.748 182.484 45.748 175.827V12.7628C45.748 6.10632 51.1383 0.708984 57.786 0.708984H136.963C143.611 0.708984 149.001 6.10632 149.001 12.7628V175.827C149.001 182.484 143.613 187.881 136.963 187.881Z" fill="#A5C7FF"/>
<path d="M135.965 182.178H58.7844C54.7308 182.178 51.4434 178.888 51.4434 174.827V14.1203C51.4434 10.0613 54.7287 6.76953 58.7844 6.76953H135.965C140.018 6.76953 143.306 10.0592 143.306 14.1203V174.827C143.304 178.886 140.018 182.178 135.965 182.178Z" fill="white"/>
<path d="M68 6.05664L72.8052 12.1815C74.7247 14.629 77.5458 16.0383 80.5188 16.0383H113.872C116.845 16.0383 119.666 14.6269 121.586 12.1815L126.391 6.05664H68Z" fill="#A5C7FF"/>
<path d="M56.5029 34H57.3429L58.6829 29.86C58.9529 29.02 59.1929 28.24 59.4329 27.37H59.4729C59.7229 28.23 59.9529 29.02 60.2229 29.86L61.5529 34H62.4229L59.9129 26.68H59.0029L56.5029 34ZM57.7729 31.7H61.1229V31.04H57.7729V31.7ZM63.4185 34H64.2285V30.05C64.7485 29.47 65.2185 29.18 65.6485 29.18C66.3685 29.18 66.7085 29.64 66.7085 30.68V34H67.5085V30.05C68.0385 29.47 68.4985 29.18 68.9285 29.18C69.6485 29.18 69.9885 29.64 69.9885 30.68V34H70.7985V30.57C70.7985 29.19 70.2685 28.47 69.1685 28.47C68.5185 28.47 67.9485 28.89 67.3685 29.52C67.1585 28.87 66.7185 28.47 65.8785 28.47C65.2385 28.47 64.6685 28.88 64.1885 29.4H64.1685L64.0885 28.6H63.4185V34ZM73.8477 34.14C74.5277 34.14 75.1377 33.78 75.6577 33.35H75.6977L75.7677 34H76.4377V30.65C76.4377 29.36 75.9177 28.47 74.5977 28.47C73.7277 28.47 72.9777 28.86 72.5077 29.17L72.8277 29.74C73.2477 29.46 73.8277 29.15 74.4777 29.15C75.4077 29.15 75.6277 29.86 75.6177 30.59C73.2977 30.85 72.2677 31.43 72.2677 32.61C72.2677 33.6 72.9577 34.14 73.8477 34.14ZM74.0577 33.47C73.5077 33.47 73.0677 33.22 73.0677 32.56C73.0677 31.83 73.7077 31.36 75.6177 31.15V32.72C75.0677 33.21 74.6077 33.47 74.0577 33.47ZM77.5839 34H81.6439V33.34H78.6139L81.5439 29.04V28.6H77.9039V29.27H80.5139L77.5839 33.57V34ZM84.8049 34.14C86.1249 34.14 87.2849 33.1 87.2849 31.31C87.2849 29.51 86.1249 28.47 84.8049 28.47C83.4849 28.47 82.3149 29.51 82.3149 31.31C82.3149 33.1 83.4849 34.14 84.8049 34.14ZM84.8049 33.45C83.8249 33.45 83.1649 32.59 83.1649 31.31C83.1649 30.02 83.8249 29.15 84.8049 29.15C85.7749 29.15 86.4449 30.02 86.4449 31.31C86.4449 32.59 85.7749 33.45 84.8049 33.45ZM88.7505 34H89.5605V30.05C90.1305 29.47 90.5305 29.18 91.1005 29.18C91.8605 29.18 92.1805 29.64 92.1805 30.68V34H92.9905V30.57C92.9905 29.19 92.4705 28.47 91.3405 28.47C90.6005 28.47 90.0405 28.88 89.5205 29.4H89.5005L89.4205 28.6H88.7505V34ZM97.1118 34H97.9318V31.04H99.1818C100.792 31.04 101.862 30.33 101.862 28.81C101.862 27.23 100.782 26.68 99.1418 26.68H97.1118V34ZM97.9318 30.36V27.36H99.0218C100.362 27.36 101.032 27.7 101.032 28.81C101.032 29.89 100.392 30.36 99.0618 30.36H97.9318ZM104.014 34.14C104.694 34.14 105.304 33.78 105.824 33.35H105.864L105.934 34H106.604V30.65C106.604 29.36 106.084 28.47 104.764 28.47C103.894 28.47 103.144 28.86 102.674 29.17L102.994 29.74C103.414 29.46 103.994 29.15 104.644 29.15C105.574 29.15 105.794 29.86 105.784 30.59C103.464 30.85 102.434 31.43 102.434 32.61C102.434 33.6 103.124 34.14 104.014 34.14ZM104.224 33.47C103.674 33.47 103.234 33.22 103.234 32.56C103.234 31.83 103.874 31.36 105.784 31.15V32.72C105.234 33.21 104.774 33.47 104.224 33.47ZM108.38 36.36C109.43 36.36 109.99 35.54 110.35 34.51L112.4 28.6H111.6L110.59 31.69C110.45 32.17 110.28 32.72 110.13 33.22H110.08C109.9 32.72 109.71 32.17 109.54 31.69L108.39 28.6H107.55L109.73 34.03L109.6 34.46C109.36 35.16 108.97 35.68 108.34 35.68C108.19 35.68 108.03 35.64 107.92 35.6L107.76 36.25C107.93 36.32 108.14 36.36 108.38 36.36Z" fill="#1A1658"/>
<path d="M65.394 15.3016H58.3153C56.8788 15.3016 55.7129 14.1342 55.7129 12.6957C55.7129 11.2573 56.8788 10.0898 58.3153 10.0898H65.394C66.8306 10.0898 67.9965 11.2573 67.9965 12.6957C67.9965 14.1342 66.8306 15.3016 65.394 15.3016Z" stroke="#A5C7FF" stroke-miterlimit="10"/>
<path d="M123.482 15.1978H129.104V11.0283L123.482 15.1978Z" stroke="#A5C7FF" stroke-miterlimit="10"/>
<path d="M137.121 15.1978H131.912C131.166 15.1978 130.561 14.5932 130.561 13.8448V12.3813C130.561 11.635 131.164 11.0283 131.912 11.0283H137.121C137.866 11.0283 138.472 11.6329 138.472 12.3813V13.8448C138.472 14.5932 137.868 15.1978 137.121 15.1978Z" stroke="#A5C7FF" stroke-miterlimit="10"/>
<path d="M139.2 12.1748H138.367V14.2595H139.2V12.1748Z" fill="#A5C7FF"/>
<path d="M58.2507 40.0762H136.555C137.94 40.0762 139.06 41.1998 139.06 42.5841V86.7655C139.06 88.1519 137.938 89.2735 136.555 89.2735H58.2507C56.8662 89.2735 55.7461 88.1498 55.7461 86.7655V42.5841C55.7461 41.1998 56.8662 40.0762 58.2507 40.0762Z" fill="#1A1658"/>
<path d="M84.4429 43.4121H59.043V48.6239H84.4429V43.4121Z" fill="#A5C7FF"/>
<path d="M118.261 48.6239H116.683C115.246 48.6239 114.08 47.4565 114.08 46.018C114.08 44.5796 115.246 43.4121 116.683 43.4121H118.261C119.697 43.4121 120.863 44.5796 120.863 46.018C120.863 47.4565 119.697 48.6239 118.261 48.6239Z" fill="#F4F4F4"/>
<path d="M132.977 48.6239H124.745C123.308 48.6239 122.143 47.4565 122.143 46.018C122.143 44.5796 123.308 43.4121 124.745 43.4121H132.977C134.414 43.4121 135.58 44.5796 135.58 46.018C135.58 47.4565 134.416 48.6239 132.977 48.6239Z" fill="#F4F4F4"/>
<path d="M110.645 47.0792C110.849 47.2731 111.18 47.4357 111.484 47.4357C111.74 47.4357 111.978 47.3023 111.978 47.0271C111.978 46.458 110.375 46.5142 110.375 45.4927C110.375 45.0028 110.739 44.6234 111.266 44.5379V44.0918H111.67V44.5296C111.974 44.5525 112.267 44.663 112.505 44.8756L112.238 45.3739C112.053 45.2134 111.763 45.08 111.499 45.08C111.214 45.08 110.987 45.2467 110.987 45.4844C110.987 46.0493 112.59 45.9493 112.59 47.0125C112.59 47.4961 112.253 47.911 111.67 47.9861V48.4238H111.266V47.9861C110.924 47.9485 110.56 47.7963 110.316 47.5399L110.645 47.0792Z" fill="#F4F4F4"/>
<path d="M59.502 83.9304C59.502 83.5593 59.7913 83.2695 60.1578 83.2695C60.5284 83.2695 60.8177 83.5593 60.8177 83.9304C60.8177 84.2973 60.5284 84.5871 60.1578 84.5871C59.7913 84.5871 59.502 84.2973 59.502 83.9304Z" fill="white"/>
<path d="M62.1289 83.9304C62.1289 83.5593 62.4183 83.2695 62.7847 83.2695C63.1553 83.2695 63.4447 83.5593 63.4447 83.9304C63.4447 84.2973 63.1553 84.5871 62.7847 84.5871C62.4183 84.5871 62.1289 84.2973 62.1289 83.9304Z" fill="white"/>
<path d="M64.7559 83.9304C64.7559 83.5593 65.0453 83.2695 65.4117 83.2695C65.7823 83.2695 66.0717 83.5593 66.0717 83.9304C66.0717 84.2973 65.7823 84.5871 65.4117 84.5871C65.0453 84.5871 64.7559 84.2973 64.7559 83.9304Z" fill="white"/>
<path d="M67.3867 83.9304C67.3867 83.5593 67.6761 83.2695 68.0425 83.2695C68.4131 83.2695 68.7025 83.5593 68.7025 83.9304C68.7025 84.2973 68.4131 84.5871 68.0425 84.5871C67.674 84.5871 67.3867 84.2973 67.3867 83.9304Z" fill="white"/>
<path d="M72.3651 82.127C73.2749 82.127 73.5934 82.8107 73.5934 83.7468C73.5934 84.6932 73.2749 85.3749 72.3651 85.3749C71.4553 85.3749 71.1367 84.6912 71.1367 83.7468C71.1367 82.8087 71.4573 82.127 72.3651 82.127ZM72.3651 82.8274C71.9237 82.8274 71.8717 83.2569 71.8717 83.7468C71.8717 84.2555 71.9237 84.6745 72.3651 84.6745C72.8065 84.6745 72.8585 84.2534 72.8585 83.7468C72.8606 83.2548 72.8065 82.8274 72.3651 82.8274Z" fill="white"/>
<path d="M75.6541 82.127C76.564 82.127 76.8825 82.8107 76.8825 83.7468C76.8825 84.6932 76.564 85.3749 75.6541 85.3749C74.7443 85.3749 74.4258 84.6912 74.4258 83.7468C74.4258 82.8087 74.7443 82.127 75.6541 82.127ZM75.6541 82.8274C75.2128 82.8274 75.1607 83.2569 75.1607 83.7468C75.1607 84.2555 75.2128 84.6745 75.6541 84.6745C76.0955 84.6745 76.1476 84.2534 76.1476 83.7468C76.1476 83.2548 76.0955 82.8274 75.6541 82.8274Z" fill="white"/>
<path d="M78.9412 82.127C79.8511 82.127 80.1696 82.8107 80.1696 83.7468C80.1696 84.6932 79.8511 85.3749 78.9412 85.3749C78.0314 85.3749 77.7129 84.6912 77.7129 83.7468C77.7129 82.8087 78.0314 82.127 78.9412 82.127ZM78.9412 82.8274C78.4999 82.8274 78.4478 83.2569 78.4478 83.7468C78.4478 84.2555 78.4999 84.6745 78.9412 84.6745C79.3826 84.6745 79.4347 84.2534 79.4347 83.7468C79.4347 83.2548 79.3826 82.8274 78.9412 82.8274Z" fill="white"/>
<path d="M82.2284 82.127C83.1382 82.127 83.4567 82.8107 83.4567 83.7468C83.4567 84.6932 83.1382 85.3749 82.2284 85.3749C81.3185 85.3749 81 84.6912 81 83.7468C81 82.8087 81.3185 82.127 82.2284 82.127ZM82.2284 82.8274C81.787 82.8274 81.7349 83.2569 81.7349 83.7468C81.7349 84.2555 81.787 84.6745 82.2284 84.6745C82.6697 84.6745 82.7218 84.2534 82.7218 83.7468C82.7218 83.2548 82.6697 82.8274 82.2284 82.8274Z" fill="white"/>
<path d="M135.568 81.0099C135.568 83.4199 133.615 85.3753 131.209 85.3753C129.953 85.3753 128.823 84.8437 128.027 83.9953C128.76 83.2135 129.208 82.1649 129.208 81.0099C129.208 79.855 128.76 78.8043 128.027 78.0246C128.823 77.1761 129.953 76.6445 131.209 76.6445C133.615 76.6445 135.568 78.5979 135.568 81.0099Z" fill="#FFBE55"/>
<path d="M129.208 81.0097C129.208 82.1647 128.761 83.2133 128.028 83.9951C127.297 83.2133 126.85 82.1647 126.85 81.0097C126.85 79.8548 127.297 78.8041 128.028 78.0244C128.761 78.8041 129.208 79.8548 129.208 81.0097Z" fill="#FF3860"/>
<path d="M126.849 81.0099C126.849 82.1649 127.296 83.2135 128.027 83.9953C127.232 84.8437 126.101 85.3753 124.848 85.3753C122.441 85.3753 120.488 83.4199 120.488 81.0099C120.488 78.5979 122.441 76.6445 124.848 76.6445C126.103 76.6445 127.234 77.1761 128.027 78.0246C127.296 78.8043 126.849 79.855 126.849 81.0099Z" fill="#FF3860"/>
<path d="M55.7461 103.059H139.06" stroke="#F4F4F4" stroke-width="2" stroke-miterlimit="10" stroke-linecap="round"/>
<path d="M97.4036 97.7523C97.3265 97.7523 97.2474 97.7398 97.1704 97.7148L91.6303 95.8407C91.3263 95.7385 91.1348 95.455 91.1348 95.1506C91.1348 95.0735 91.1473 94.9943 91.1722 94.9171C91.3013 94.5356 91.7136 94.3313 92.0966 94.4585L97.4036 96.2534L102.71 94.4585C103.094 94.3292 103.506 94.5356 103.635 94.9171C103.764 95.2986 103.558 95.7135 103.177 95.8427L97.643 97.7127C97.568 97.7398 97.4868 97.7523 97.4036 97.7523Z" fill="#F4F4F4"/>
<path d="M133.404 157.948H61.0396C58.2976 157.948 56.0762 155.722 56.0762 152.978V115.406C56.0762 112.66 58.2997 110.436 61.0396 110.436H133.404C136.146 110.436 138.368 112.662 138.368 115.406V152.978C138.368 155.724 136.144 157.948 133.404 157.948Z" stroke="#A5C7FF" stroke-miterlimit="10" stroke-linecap="round"/>
<path d="M138.368 141.311V152.979C138.368 155.724 136.144 157.949 133.404 157.949H61.0396C58.2976 157.949 56.0762 155.724 56.0762 152.979V141.311H138.368Z" fill="#A5C7FF" stroke="#A5C7FF" stroke-miterlimit="10" stroke-linecap="round"/>
<path d="M67.3865 134.152C71.3765 134.152 74.6109 130.913 74.6109 126.918C74.6109 122.922 71.3765 119.684 67.3865 119.684C63.3966 119.684 60.1621 122.922 60.1621 126.918C60.1621 130.913 63.3966 134.152 67.3865 134.152Z" fill="#A5C7FF" stroke="#A5C7FF" stroke-miterlimit="10" stroke-linecap="round"/>
<path d="M72.2501 182.177C73.7012 180.857 74.6111 178.95 74.6111 176.832C74.6111 172.835 71.3757 169.596 67.3867 169.596C63.3955 169.596 60.1602 172.835 60.1602 176.832C60.1602 178.95 61.07 180.857 62.5211 182.177H72.2501Z" fill="#A5C7FF"/>
<path d="M133.774 123.299H84.5298C83.5367 123.299 82.7227 122.486 82.7227 121.489C82.7227 120.495 83.5346 119.68 84.5298 119.68H133.774C134.768 119.68 135.582 120.493 135.582 121.489C135.58 122.486 134.768 123.299 133.774 123.299Z" fill="#A5C7FF"/>
<path d="M131.967 134.152H86.3349C84.3487 134.152 82.7227 132.524 82.7227 130.535C82.7227 128.546 84.3487 126.918 86.3349 126.918H131.967C133.954 126.918 135.58 128.546 135.58 130.535C135.58 132.524 133.956 134.152 131.967 134.152Z" fill="#F4F4F4"/>
<path d="M131.967 179.504H86.3349C84.3487 179.504 82.7227 177.876 82.7227 175.887C82.7227 173.899 84.3487 172.271 86.3349 172.271H131.967C133.954 172.271 135.58 173.899 135.58 175.887C135.58 177.876 133.956 179.504 131.967 179.504Z" fill="#F4F4F4"/>
<path d="M55.7461 181.518V168.629C55.7461 167.253 56.8704 166.127 58.2445 166.127H135.868C137.242 166.127 138.367 167.253 138.367 168.629V181.775" stroke="#A5C7FF" stroke-miterlimit="10" stroke-linecap="round"/>
<path d="M48.4565 146.81H10.2129V187.084H48.4565V146.81Z" fill="#3480FF"/>
<path fill-rule="evenodd" clip-rule="evenodd" d="M29.3354 141.064C31.9462 141.064 34.3113 142.123 36.0227 143.837C37.7341 145.551 38.7917 147.919 38.7917 150.533H37.757C37.757 148.205 36.8139 146.095 35.2899 144.569C33.7659 143.043 31.6589 142.098 29.3334 142.098C27.0078 142.098 24.9009 143.043 23.3769 144.569C21.8529 146.095 20.9097 148.205 20.9097 150.533H19.875C19.875 147.919 20.9326 145.551 22.644 143.837C24.3596 142.123 26.7226 141.064 29.3354 141.064Z" fill="#1A1658"/>
<path fill-rule="evenodd" clip-rule="evenodd" d="M20.509 152.441C21.1461 152.441 21.6666 151.92 21.6666 151.282C21.6666 150.644 21.1482 150.123 20.509 150.123C19.8719 150.123 19.3535 150.644 19.3535 151.282C19.3535 151.92 19.8719 152.441 20.509 152.441Z" fill="#1A1658"/>
<path fill-rule="evenodd" clip-rule="evenodd" d="M38.1615 152.441C38.7986 152.441 39.317 151.92 39.317 151.282C39.317 150.644 38.7965 150.123 38.1615 150.123C37.5244 150.123 37.0039 150.644 37.0039 151.282C37.0039 151.92 37.5244 152.441 38.1615 152.441Z" fill="#1A1658"/>
<path d="M27.9404 158.718H1.00391V187.085H27.9404V158.718Z" fill="#FFBE55"/>
<path fill-rule="evenodd" clip-rule="evenodd" d="M14.473 154.669C16.3113 154.669 17.9769 155.415 19.1824 156.622C20.3878 157.829 21.1332 159.497 21.1332 161.338H20.4045C20.4045 159.697 19.7403 158.213 18.666 157.137C17.5917 156.062 16.1094 155.397 14.4709 155.397C12.8324 155.397 11.35 156.062 10.2757 157.137C9.20143 158.213 8.53728 159.697 8.53728 161.338H7.80859C7.80859 159.497 8.55394 157.829 9.75939 156.622C10.969 155.417 12.6346 154.669 14.473 154.669Z" fill="#1A1658"/>
<path fill-rule="evenodd" clip-rule="evenodd" d="M8.25545 162.683C8.70516 162.683 9.07158 162.316 9.07158 161.868C9.07158 161.42 8.70516 161.053 8.25545 161.053C7.80783 161.053 7.44141 161.42 7.44141 161.868C7.44141 162.316 7.80783 162.683 8.25545 162.683Z" fill="#1A1658"/>
<path fill-rule="evenodd" clip-rule="evenodd" d="M20.689 162.683C21.1367 162.683 21.5031 162.316 21.5031 161.868C21.5031 161.42 21.1367 161.053 20.689 161.053C20.2414 161.053 19.875 161.42 19.875 161.868C19.875 162.316 20.2414 162.683 20.689 162.683Z" fill="#1A1658"/>
</svg>
